<svg width="2000" height="2000" viewBox="0 0 2000 2000" fill="none" xmlns="http://www.w3.org/2000/svg">
<rect width="2000" height="2000" fill="#E1FF01"/>
<path d="M930.978 576.112C910.311 581.225 890.311 592.562 874.755 608.344C862.977 620.126 854.755 632.351 833.199 669.696C818.31 695.259 787.199 749.275 763.865 789.731C740.531 829.965 721.42 865.087 721.42 867.754C721.42 876.201 725.642 877.535 750.531 877.535C803.866 877.535 874.311 863.976 932.534 842.636C987.646 822.408 1056.31 782.618 1101.43 744.607C1150.98 703.039 1208.54 635.019 1231.43 591.006C1234.76 584.337 1234.76 583.226 1231.43 578.335L1231.04 577.71C1229.21 574.781 1225.99 573.004 1222.54 573.009L1085.2 573.223C978.312 573.223 939.645 574.112 930.978 576.112Z" fill="black"/>
<path d="M1286.32 617.903C1285.21 619.459 1269.43 646.355 1251.43 677.476C1233.43 708.596 1212.98 744.162 1205.87 756.388C1156.09 841.969 1143.65 864.42 1143.65 867.977C1143.65 877.535 1142.31 877.535 1293.65 877.535C1403.21 877.535 1438.99 876.868 1440.99 874.868C1442.54 873.312 1443.65 869.755 1443.65 866.865C1443.65 863.976 1418.54 817.962 1387.65 764.613C1295.65 604.788 1302.09 615.235 1294.98 615.235C1291.43 615.235 1287.65 616.569 1286.32 617.903Z" fill="black"/>
<path d="M676.308 941.331C620.529 1036.25 566.084 1133.39 561.861 1145.39C554.084 1167.4 554.084 1198.96 561.639 1220.97C564.75 1230.08 587.195 1271.21 615.64 1320.55C667.641 1410.36 673.641 1418.36 692.974 1424.36C715.419 1431.25 744.753 1424.14 757.642 1408.8C763.642 1401.69 763.198 1402.8 914.533 1140.28C973.423 1038.47 1021.42 952.89 1021.42 950.001C1021.42 947.333 1020.31 943.999 1018.76 942.443C1016.76 940.442 975.423 939.775 846.754 939.775C753.42 939.775 676.752 940.442 676.308 941.331Z" fill="black"/>
<path d="M1383.65 941.107C1380.54 941.552 1369.21 943.108 1358.1 944.442C1220.32 961.336 1083.43 1035.8 993.869 1142.95C973.424 1167.4 949.868 1200.07 938.09 1220.52C931.201 1232.53 931.868 1241.2 939.868 1243.2C942.535 1243.86 1009.87 1244.09 1089.2 1243.86L1233.65 1243.2L1246.98 1237.86C1265.43 1230.53 1282.32 1219.41 1294.98 1206.07C1302.76 1198.07 1324.54 1162.28 1373.21 1077.81C1410.32 1013.57 1442.1 958.668 1443.43 955.778C1445.65 951.555 1445.65 949.554 1442.54 945.109C1439.21 939.996 1438.32 939.774 1414.1 939.996C1400.54 940.218 1386.76 940.663 1383.65 941.107Z" fill="black"/>
</svg>
